<?xml version="1.0" encoding="UTF-8"?>
<svg id="Layer_1" data-name="Layer 1" xmlns="http://www.w3.org/2000/svg" xmlns:xlink="http://www.w3.org/1999/xlink" viewBox="0 0 215.13 211.44">
  <defs>
    <style>
      .cls-1 {
        fill: url(#radial-gradient);
      }

      .cls-1, .cls-2, .cls-3, .cls-4, .cls-5, .cls-6 {
        stroke-width: 0px;
      }

      .cls-2 {
        opacity: .5;
      }

      .cls-2, .cls-4 {
        fill: #a86b3a;
      }

      .cls-5 {
        fill: #667f95;
      }

      .cls-6 {
        fill: #efe2cd;
      }
    </style>
    <radialGradient id="radial-gradient" cx="112.72" cy="115.9" fx="112.72" fy="115.9" r="70.02" gradientUnits="userSpaceOnUse">
      <stop offset=".83" stop-color="#d2933d"/>
      <stop offset=".9" stop-color="#d18f3d"/>
      <stop offset=".96" stop-color="#d1863f"/>
      <stop offset="1" stop-color="#d07943"/>
    </radialGradient>
  </defs>
  <circle class="cls-1" cx="112.72" cy="115.9" r="70.02"/>
  <g id="Grass">
    <g id="Grass-2" data-name="Grass">
      <path class="cls-4" d="M92.32,176.57c-.55-2.4-1.16-3.98-1.53-5.58-.04-.16-.18-.78-.45-1.59t0,0c0-.39-.18-.69-.27-.83-.03-.04-.05-.07-.05-.08-.17-.23-7.73-16.56-12.5-22.18-7.5-8.85-15.75-14.8-15.96-14.56-.11.12,1.97,1.73,4.91,5.09,0,0,5.91,6.75,12.98,21.92.84,1.8,1.56,3.65,1.99,4.82.88,2.42.65,2.3,2.36,8.01.84,2.83,1.71,5.64,2.47,8.1.09.31.24.78.33,1.08.95.32,1.96.63,3.04.91,1.61.42,3.14.72,4.55.94-.62-2.02-1.24-4.04-1.86-6.06Z"/>
      <path class="cls-4" d="M106.08,117.76c-.76-1.99-1.53-3.97-2.31-5.97l1.03,14.15,1.28-8.18Z"/>
      <path class="cls-4" d="M98.54,96.4c-6.72-16.28-13.53-32.08-20.4-47.39-3.14-7.28-6.89-15.66-7.51-15.42-.98.37,6.04,22.49,13.46,42.67h0s12.18,33.32,22.74,63.84c-.96-11.14-1.8-22.67-1.62-27.24-2.18-5.46-4.41-10.94-6.69-16.47Z"/>
      <path class="cls-4" d="M106.33,145.74s0-.59.05-1.4c.02-.45.05-.98.09-1.5.1-1.26,1.01-7.72,2.48-17.57.25-1.69.18-3.01-.06-4.03-.43-1.82-3.1-1.67-3.38.18l-.71,4.52-1.03-14.15-2.21-30.34c-1.17-12.54-1.82-21.98-1.82-21.98-.6-20.66-4.02-37.25-4.41-39.08-.02-.12-.04-.23-.04-.35,0-1.51-.08-11.65-1.16,9.01-1.16,22.21,4.83,59.88,3.85,66.56-.05.33-.08.76-.1,1.27-.18,4.57.66,16.1,1.62,27.24.17,1.92.33,3.83.5,5.69.19,2.08-2.79,2.65-3.38.65-1.54-5.23-3.32-10.96-5.21-16.45-5.8-16.83-14.9-46.26-28.43-64.77-8.08-11.05-9.33-11.7-9.33-11.7,1.07,2.09,2.29,3.82,3.11,5.12s2.2,2.99,2.63,3.94c2.13,4.7,6.53,14.54,10.02,23.41,4.54,11.52,11.84,35.16,12.22,36.38.01.03.02.07.03.1,7.5,19.63,12.05,35.16,13.54,42.82,1.47,7.59,2.27,12.95,2.47,14.82.82,7.47.9,13.9.75,18.78-.03.86.58,1.61,1.44,1.75s1.7.27,2.58.39c.77.11,1.52.21,2.26.3,1.03.13,1.93-.7,1.92-1.73-.12-25.41-.19-33.91-.25-35.06,0-.17-.04-1.36-.04-2.81Z"/>
      <path class="cls-4" d="M157.43,132.61c2.46-4.38,3.7-7.47,5.42-10.02,4.45-6.62,5.13-7.37,10.56-15.35-10.38,10.97-17.69,19.29-19.19,21.3-.37.5-2.65,3.62-3.98,5.63h0c-.65,1.04-1.34,2.18-2.06,3.4-4.46,7.51-7.33,13.37-8.7,16.27-3.78,7.98-5.29,14.84-6.48,19.64-1.01,4.05-1.67,7.5-2.1,10,1.21-.33,2.46-.7,3.76-1.13,1.51-.5,2.94-1.01,4.29-1.54.09-.38.24-.98.42-1.73,1.07-4.6,1.15-6.29,1.93-9.82.68-3.1,1.41-5.4,1.63-6.07.82-2.53,1.68-4.63,2.5-6.52.75-1.73,1.57-3.29,2.07-4.32,2.53-5.24,3.81-7.8,4.32-8.83,1.21-2.46,1.73-3.48,2.26-4.51,1-1.95,1.71-3.29,2.08-3.99.61-1.14,1.04-1.94,1.3-2.4Z"/>
      <path class="cls-4" d="M115.96,124.69l2.85-38.44s0-.07,0-.11l-.24-29.24c-.09-.24-.18-.51-.26-.79-.22-.79-.29-1.52-.3-2.12-.9-.63-1.56-1.27-2-1.76-1.32-1.46-1.26-2.14-1.22-2.36.03-.15.07-.27.11-.35l.86-1.81s.04-.09.05-.13c.23-.69.22-1.37.13-1.75-.18-.73-.66-.64-1.7-1.92-.56-.69-.9-1.12-.8-1.6.1-.49.54-.52.64-1.12.08-.51-.14-1.14-.14-1.14,0,0,0,0,0,0-.35-.19-.88-.53-1.41-1.06-.61-.62-1.21-1.21-1.13-1.89.08-.68.78-.85.79-1.52,0-.46-.31-.83-.57-1.08-.1-.05-.4-.2-.59-.54-.14-.26-.15-.5-.15-.62.03-.08.34-.82-.08-1.52-.28-.47-.72-.64-.86-.69-.71-1.11-.69-1.7-.52-2.03.07-.14.14-.17.41-.57.38-.57.58-.85.58-1.1,0-.16-.05-.28-.81-1.21-.54-.67-.63-.75-.67-.96-.09-.46.22-.6.31-1.18.14-.96-.54-1.79-.71-1.99-.41-.5-.89-.76-1.19-.9-.22-.36-.48-.9-.37-1.5.11-.58.46-.7.69-1.41.05-.17.27-.93,0-1.7-.17-.49-.44-.69-1.37-1.56-.36-.34-.04-.52-.32-1.67-.2-.83.29-1.99.97-2.58,2.03-1.77,6.64-.65,7.16,1.57.15.63.76.87,1.28,1.31,1.15.99,1.59,1.03,2.38,1.79.74.71,1.13,1.43,1.29,1.73.89,1.66.86,3.33.76,4.25-.04.32-.1,3.74.37,4.52.08.14.1-2.5.77-1.79.76.81.86.95.93,1.1.24.48.24.94.23,1.32-.09,2.18-.76,2.87-.64,4.23.14,1.62,1.18,1.6,1.14,3.14-.03,1.21-.68,1.42-.57,2.74.05.6.24,1.14.55,2.08.19.59.39,1.07.53,1.41,0,.45-.08,1.09-.38,1.77-.26.58-.58.91-.7,1.07-1.49,1.86.89,6.38-.11,8.26-.41.78-.8,1.11-1.35,2.29-.24.51-.39,1.22-.45,2.8-.15,3.52-.03,30.34-.02,31.54,0,.03,0,.05,0,.08-.08,1.34-2.84,35.22-2.88,39.91-.05,6.18.3,11.65.2,11.99-.1.33-.73,11.41-.7,12.45,0,.05,0,.09,0,.14-.21,2.7-.51,5.31-.65,5.31-.33,0-.28-15.03-.11-33.09Z"/>
      <path class="cls-4" d="M141.96,120.27c9.26-14.99,18.53-29.48,27.78-43.47,4.27-6.67,9.33-14.34,9.9-14.01.9.52-9.59,21.22-20.18,39.93h0s-17.4,30.91-32.75,59.34c2.75-10.84,5.43-22.08,5.99-26.62,3.04-5.03,6.12-10.09,9.26-15.17Z"/>
      <path class="cls-4" d="M110.45,124.71c-1.92,9.77-3.12,16.18-3.28,17.44-.07.53-.12,1.05-.16,1.5,2.68,9.51,4.86,17.68,6.04,23.04.68,3.07,1.17,6.13,1.17,6.13.06,1.46.1,2.96.1,4.49.02,2.94-.07,5.76-.22,8.43,1.94-.03,4.04-.13,6.3-.37,2.29-.24,4.41-.58,6.34-.96,3.96-17.75,7.92-35.5,11.89-53.25.59-1.74,8.09-24.38,1.92-28.17-4.77-2.93-17.02,5.82-30.08,21.72ZM121.84,157.68l-5.32-14.09c.03-1.97.23-10.32,2.65-16.76,1.24-3.31,2.69-5.09,3.23-5.71,1.2-1.4,2.33-2.23,3.73-3.23,5.86-4.18,8.8-6.28,9.44-5.96,1.56.77.92,7.4-7.94,31.84l-5.78,13.91Z"/>
    </g>
  </g>
  <g>
    <path class="cls-2" d="M50.76,113.66c.94,1.18,1.89,2.41,2.86,3.68.05-.02.11-.05.16-.07-1.01-1.22-2.02-2.43-3.02-3.61Z"/>
    <path class="cls-3" d="M99.9,144.25c-1.07,1.43-2.15,2.87-3.04,4.05-1.26,1.67-2.15,2.86-2.15,2.86-.81,2.84,1.72,4.67,1.72,4.67.91,2.64,2.83,2.54,2.83,2.54l1.74.99,4.05,2.29.67.38s.71.35,1.85.94c1.24.65,2.98,1.58,4.89,2.68,3.2,1.84,6.83,4.13,9.24,6.26,1.39,1.23,2.38,2.41,2.64,3.41.11.44.18.9.18.9.15,1.01.1,1.95-.03,2.77-.15.92-.41,1.71-.65,2.3.45.91.91,1.82,1.36,2.73.49-.22.99-.44,1.48-.66.1-.04.2-.09.29-.13l.61-1.22s-.3-1.42-.2-3.05c.1-1.62,1.11-1.73,1.11-1.73.8.4,1.45.89,1.96,1.37,1.19,1.1,1.68,2.19,1.68,2.19l2.12,1.02c2.12,1.02,2.02,2.44,2.02,2.44.39-.43.78-.87,1.17-1.3-.02-.58-.04-1.16-.06-1.75,0,0-.87-1.13-.91-1.18-.99-1.29-2.73-2.9-3.13-3.29-.51-.48-1.11-1.1-1.77-1.88-.59-.69-1.22-1.51-1.87-2.48-2.65-1.24-5.12-2.72-6.93-3.89-1.84-1.2-3.01-2.08-3.01-2.08,0,0-3.33-2.22-6.97-4.62-2.91-1.92-6.01-3.94-7.74-5.02-.15-.1-.3-.19-.43-.27-.13-.08-.24-.15-.36-.23-3.06-1.96-2.65-2.95-2.65-2.95l.15-1.29-.75-.68.3-.76.75-1.11,1.02-1.5,3.84-5.64c-1-.1-2.84-.28-5.21-.57-.59.79-1.21,1.62-1.84,2.46Z"/>
    <path class="cls-6" d="M172.62,58.5c-.07-.51-.19-.96-.31-1.32-.35-.23-.76-.52-1.17-.91-.31-.29-.57-.58-.78-.84.28-.07.6-.16.94-.32.57-.25,1.01-.57,1.32-.83.15-.28.32-.69.25-1.16-.15-.95-1.22-1.58-1.14-1.69.05-.07.38.12.38.12.28.19.75.43,1.29.69-.12-.24-.25-.48-.37-.72-.54-1.44-.97-3.13-1.74-4.81-.26-.57-.58-1.14-.93-1.7-.06-.1-.2-.32-.36-.57-.71-1.09-1.42-1.87-2.8-3.38-.13-.14.64.99.6,1.27-.05.31-.58.48-.91.58-.53.16-2.78.16-3.79.04-.19-.02-.99-.16-2.04-.44-.61-.17-1.16-.49-2.07-.81-.13-.05-1.16-.47-3.18-1.39-.36-.17-.7-.3-1.04-.4-.14-.04-.75-.23-1.61-.35-.52-.07-1.2-.12-2-.08-2.69-.13-4.49,1.45-4.48,2.81,0,.97.92,2.09,1.9,2.27,0,0,.05,0,.1.01.74.07,1.18-.34,1.9-.67.19-.09.59-.2,1.37-.43,1.18-.34,1.47-.35,1.63-.34.49,0,.84.13,1.31.29.35.12.92.32,1.56.78.03.02.06.05.09.07.63.48,1.01.98,1.21,1.26.18.25.38.52.54.94.04.1.2.52.26,1.11.08.92-.16,1.69-.34,2.14-.38.69-.81,1.02-1.11,1.2-.13.07-.19.1-1.33.46-1.02.33-1.13.35-1.33.4-.6.14-1.09.14-1.33.13-1-.02-1.75-.3-1.99-.4-.95-.39-1.59-.97-1.93-1.33l-1.43-1.32c-.07-.04-1-.52-1.82-.04-.44.25-.63.66-.68.78-.22.48-.16.91-.1,1.37.12.86.47,1.47.59,1.66.55.85,1.28,1.4,1.87,1.74.42.24.76.37.87.42.62.22,1.19.3,1.78.32.43.01.86,0,1.35-.02,1.84-.08,2.15-.48,3.81-.39,1.53.08,2.15.46,2.35.59.17.11,1.01.69,1.37,1.76.33.96.13,1.91,0,2.54,0,0-.03.15-.07.29-.36,1.4-1.28,2.34-2.12,2.93-.81.57-1.54.82-1.66.86-4.05.94-5.78.81-6.55.43-.19-.1-1.07-.58-2.07-.36-.26.06-.45.1-.61.23-1.1.89.37,4.72,1.67,6.95,1.17,2,2.16,2.76,3.06,3.8.37.43.73.91,1.08,1.54.16.28.31.59.46.94.65,1.5,1.34,3.1.93,4.97-.58,2.66-2.7,2.64-3.31,5.42-.39,1.81.37,2.19-.07,5.07-.21,1.33-.61,2.39-.92,3.08-.46,1.01-.93,1.74-1.23,2.15-2.62,3.56-5.27,5.78-7.14,7.12-1.52,1.09-3.05,1.91-6.04,3.5-3.99,2.13-5.99,3.2-8.57,4.28-7.52,3.17-15.16,4.47-15.16,4.47,0,0-6.37,1.28-11.13,2.15-8.88,1.62-9.07,1.23-13.24,2.14-3.37.74-8.17,2.08-13.81,4.69,0,0,0,0,0,0-.78.89-3.7,4.28-6.93,4.99,2.39,1.25,4.97,2.69,7.97,4.28,2.89,1.53,7.44,2.79,12.29,3.8,1.72.36,3.48.69,5.22.98.78-.91,1.66-1.99,2.36-3.05,1.7-2.55,3.96-.14,3.96-.14,0,0,1.75,1.25-1.46,3.32l-.44.57c1.08.16,2.13.3,3.13.44,1.07.14,2.09.27,3.02.38,2.36.28,4.2.47,5.21.57.32.03.56.05.69.07.09,0,.15.01.15.01,0,0,.06,0,.15-.01.34-.03,1.3-.1,2.74-.26,1.08-.12,2.43-.29,3.99-.51,2.79-.41,6.25-1,10.02-1.87,2.53-.58,5.19-1.28,7.89-2.12,3.11-.97,6.25-2.13,9.28-3.5,1.87-.85,3.69-1.78,5.43-2.8.16-.09.3-.19.46-.28,4.8-2.9,8.47-6.28,11.25-9.58.07-.09.15-.18.22-.27,6.17-7.45,7.84-14.4,7.84-14.4,1.64-3.04,2.26-8.29,2.49-12.19.09-.95.19-2.03.3-3.31.62-7.65-1.84-13.13-1.84-13.13l-.17-.54c-.18-.91-.54-1.92-.9-2.79-.07-.23-.15-.47-.22-.7-.46-.99-.84-1.77-1.1-2.29-.86-1.72-1.22-2.29-1.18-3.16.03-.72.32-1.3.55-1.66.19-.72.59-1.83,1.5-2.85.02-.02.04-.04.06-.07.72-.78,1.41-1.21,1.91-1.51,1.46-.89,3.37-1.54,3.63-1.63.23-.26.46-.53.68-.79-.03.02-.07.03-.1.05.05-.47.06-1.07-.03-1.77Z"/>
    <path class="cls-5" d="M72.63,126.21s0,0,0,0c5.65-2.61,10.44-3.95,13.81-4.69,4.16-.92,4.36-.52,13.24-2.14,4.76-.87,11.13-2.15,11.13-2.15,0,0,7.64-1.3,15.16-4.47,2.58-1.09,4.57-2.15,8.57-4.28,2.99-1.59,4.51-2.41,6.04-3.5,1.87-1.34,4.52-3.56,7.14-7.12.29-.42.77-1.14,1.23-2.15.31-.69.71-1.74.92-3.08.44-2.87-.32-3.26.07-5.07.6-2.78,2.72-2.76,3.31-5.42.41-1.87-.29-3.47-.93-4.97-.15-.35-.31-.66-.46-.94-.35-.63-.71-1.11-1.08-1.54-.9-1.03-1.88-1.79-3.06-3.8-1.19-2.02-2.78-6.11-1.67-6.95.64-.48,2.2.08,2.62.24.04.02.08.03.08.03.11.05.2.1.28.15.13.06.28.11.46.16.14.03.26.06.37.07.08,0,.2.02.36.03.43.03,2.44.14,5.07-.98.78-.33,1.16-.51,1.66-.86.84-.59,1.76-1.53,2.12-2.93.03-.13.07-.29.07-.29.13-.63.32-1.57,0-2.54-.36-1.07-1.2-1.65-1.37-1.76-.19-.13-.81-.51-2.35-.59-1.66-.08-1.98.31-3.81.39-.49.02-.92.03-1.35.02-.59-.02-1.16-.09-1.78-.32-.11-.04-.45-.17-.87-.42-.58-.33-1.32-.88-1.87-1.74-.12-.19-.46-.8-.59-1.66-.07-.46-.12-.89.1-1.37.06-.12.25-.53.68-.78.82-.48,1.75,0,1.82.04l1.43,1.32c.34.37.97.94,1.93,1.33.25.1,1,.38,1.99.4.24,0,.73,0,1.33-.13.2-.05.31-.07,1.33-.4,1.14-.36,1.21-.39,1.33-.46.3-.17.74-.51,1.11-1.2.19-.45.42-1.22.34-2.14-.05-.59-.22-1.01-.26-1.11-.16-.41-.36-.68-.54-.94-.2-.28-.58-.78-1.21-1.26-.03-.02-.06-.05-.09-.07-.64-.46-1.21-.66-1.56-.78-.47-.16-.82-.28-1.31-.29-.15,0-.44,0-1.63.34-.78.22-1.17.34-1.37.43-.71.33-1.16.74-1.9.67-.05,0-.09-.01-.1-.01-.98-.18-1.9-1.29-1.9-2.27,0-1.37,1.8-2.95,4.48-2.81.8-.04,1.48,0,2,.08.86.11,1.47.3,1.61.35.34.11.68.24,1.04.4,2.02.92,3.05,1.35,3.18,1.39.91.32,1.47.65,2.07.81.34.09,1.75.39,2.04.44.94.17,2.04.28,2.54.22.58-.06,2.26-.15,2.43-.83.03-.13.04-.4-1.12-1.58-.72-.74-1.09-1.12-1.76-1.61,0,0-.01,0-.02-.01-.18-.13-.36-.26-.56-.38-1.66-1.06-3.71-1.77-3.71-1.77-1.13-.39-2.03-.59-2.34-.65-1.13-.24-3.17-.56-6.89-.22-2.98.27-5.03.49-7.72,1.46-2.08.75-4.4,1.98-6.85,4.04-.26.21-.52.44-.79.7,1.03-.93,2.02-1.63,2.73-2.12,3.06-2.13,6.11-3.08,8.33-3.53-1.11.59-6.17,3.36-8.78,8.38-1.31,2.53-1.83,5.3-1.86,5.43-.13.73-.32,1.99-.31,3.57,0,.61.01,1.61.23,2.91.17,1.02.4,1.73.85,3.15.3.95.51,1.46.78,1.99.28.53.56.95.77,1.24.62.3,1.68.93,2.53,2.12.2.28.69,1.01,1,2.08.55,1.89-.14,2.5.4,4.58.27,1.05.66,1.75.76,1.91.45.78.85,1.12,1.69,2.01,1.43,1.52,2.15,2.29,2.22,2.85.16,1.29-1.09,2.99-2.54,3.28-1.29.25-2.05-.75-5.18-2.54-1.39-.79-2.58-1.36-3.39-1.73-.25-.04-.68-.1-1.21-.16-2.67-.31-7.99-.57-19.67,3.04-.79.25-1.73.55-2.78.9-.3.27-1.62,1.02-4.93,2.97-3.27,1.93-4.94,2.93-6.64,4.04-1.26.83-2.36,1.6-4.15,2.85-1.56,1.09-2.35,1.65-3.32,2.38-1.51,1.14-2.7,2.13-3.66,2.92-.71.59-1.42,1.15-2.16,1.83-1.89,1.75-3.02,3.06-9.25,9-.5.48-1.2,1.09-2.15,2.03-1.03,1.01-1.89,1.92-2.34,2.42-.59.65-1.59,1.81-3.67,5-3.04,4.64-3.85,6.96-4.66,6.76-.51-.12-.65-1.14-.73-1.67-.32-2.28,1.89-3.97,1.65-4.22-.3-.31-2.9,2.96-7.29,4.42-2.29.76-4.95,1-6.76,1.15-.33.03-1.61.32-3.3.16-2.56-.23-4.42-.12-5.11-.16-2.88-.2-5.61.28-11.08,1.26-2.33.41-5.37,1.03-8.9,1.96-.2.05-1.76.13-3.22.93-.06.03-.96.54-1.76,1.47-.22.25-.34.44-.44.68-.22.54-.25,1.22-.04,1.63.51,1.02,2.55.85,2.82.82,2.02-.19,2.65-1.41,5-2.67,1.51-.81,2.71-1.09,4.62-1.54,2.77-.65,4.93-.67,7.19-.68.28,0,3.63.04,4.29.06,1.2.04,7.84.6,10.27,1.03,1.59.28,1.63.39,6.23,1.5,1.49.36,2.67.64,3.6.85.58.13,1.06.22,1.46.29.56.09.95.12,1.18.07,0,0,.01,0,.02,0,3.23-.72,6.15-4.11,6.93-4.99ZM149.7,46.2c.46-.46.94-.76,1.59-1.1.61-.31,1.33-.5,2.1-.5.6,0,1.17.11,1.68.31.47.18.9.44,1.24.76.32.29.57.63.73,1,.15.33.23.68.23,1.05,0,.45-.1.95-.32,1.34-.3.55-.79.82-1.4,1.15-.61.33-1.3.35-2.1.35-.54,0-.9-.1-1.36-.26-.7-.24-1.59-.61-2.01-1.11-.42-.5-1.3-1.11-1.3-1.76,0-.43.45-.78.91-1.24Z"/>
    <path class="cls-5" d="M54.97,116.88c.18-.09.8-.42,1.65-.9-.84.39-1.78.82-2.84,1.28-.05.02-.11.05-.16.07-.19.08-.39.17-.59.25l1.83-.66s.08-.03.11-.05Z"/>
    <path class="cls-3" d="M150.09,49.19c.42.5,1.31.87,2.01,1.11.46.16.82.26,1.36.26.79,0,1.48-.02,2.1-.35.61-.33,1.1-.6,1.4-1.15.21-.39.32-.89.32-1.34,0-.37-.08-.72-.23-1.05-.17-.37-.42-.71-.73-1-.34-.31-.76-.57-1.24-.76-.51-.2-1.08-.31-1.68-.31-.77,0-1.5.18-2.1.5-.65.34-1.13.63-1.59,1.1-.45.46-.91.81-.91,1.24,0,.65.88,1.26,1.3,1.76Z"/>
    <path class="cls-3" d="M186.5,56.69c-3.66-.78-4.19-1.08-4.19-1.08l-4.29-1.47s-2.77-1.04-4.61-1.9c-.55-.26-1.01-.5-1.29-.69,0,0-.33-.19-.38-.12-.08.11.99.74,1.14,1.69.07.47-.1.88-.25,1.16-.31.26-.75.57-1.32.83-.34.15-.66.25-.94.32.21.26.47.55.78.84.41.39.82.69,1.17.91.12.36.24.81.31,1.32.1.69.08,1.3.03,1.77.04-.02.07-.03.1-.05,2.32-1.21,4.12-1.4,5.35-1.33.37.02.62.06,2.73.29,1.74.19,3.22.34,3.22.34l3.07.2,4.1.05s-1.07-2.3-4.73-3.08Z"/>
    <path class="cls-3" d="M97.49,137.08s-2.26-2.41-3.96.14c-.7,1.06-1.58,2.14-2.36,3.05-1.1,1.27-2.02,2.2-2.02,2.2-.42.34-.85.73-1.3,1.16-.73.69-1.49,1.49-2.24,2.42-.63.79-1.17,1.57-1.62,2.29.03.47.06,1.09.1,1.82.05,1.07.05,1.44-.1,1.91-.15.47-.39.83-.57,1.05.06.25.18.66.38,1.15.41.98.81,1.37,1.33,2.39.31.6.48,1.07.62,1.44.49,1.34.68,2.54,1.19,4.68.15.63,1.35,5.63,2.57,9.37,0,0,.21.66.37,1.57.13.78.22,1.74.11,2.63-.09.68-.29,1.34-.29,1.34,0,0-.25.85-.67,1.63-.6,1.12-1.57,1.76-2.46,2.49-.5.41-.98.85-1.35,1.43-.45.69-.92,1.84-.76,3.73.86-.9,1.61-1.64,2.19-2.2.22-.21.43-.41.63-.59.43-.4.85-.76,1.37-1.13.85-.61,1.29-.92,1.9-.96,1.09-.07,1.89.67,2,.76.11.11.22.23.95,1.63.48.92.72,1.38.86,1.72.38.96.29,1.16.57,1.72.23.46.65,1.06,1.52,1.63.06-.22.11-.48.15-.76.09-.59.14-1.3.04-2.11-.12-.88-.31-1.03-1.14-3.44,0,0-.57-1.63-1.05-3.35-.11-.39-.3-1.09-.47-2.03-.05-.28-.08-.5-.1-.6,0-.03,0-.05,0-.05-.44-2.95-2.65-11.31-2.65-11.31,0,0-1.02-3.84-1.92-8.95-.3-1.68-.34-2.44-.23-3.29.07-.54.21-1.11.23-2.04.01-.71-.05-1.3-.11-1.7.23-.43.49-.87.76-1.32.27-.45.57-.91.88-1.37.27-.4.55-.79.82-1.16l2.8-3.67,1.11-1.45.44-.57c3.2-2.07,1.46-3.32,1.46-3.32Z"/>
    <path class="cls-4" d="M24.51,127.51c3.46-1.07,6.45-1.8,8.74-2.31,5.55-1.23,8.32-1.58,11.21-1.65,2.1-.05,3.86.05,5.11.16,1.69.15,2.97-.14,3.3-.16,1.81-.16,4.47-.39,6.76-1.15,4.39-1.46,6.99-4.74,7.29-4.42.24.25-1.97,1.95-1.65,4.22.08.53.22,1.55.73,1.67.81.2,1.62-2.13,4.66-6.76,2.08-3.18,3.09-4.35,3.67-5,.45-.5,1.31-1.41,2.34-2.42.95-.94,1.65-1.55,2.15-2.03,6.23-5.94,7.35-7.26,9.25-9,.73-.68,1.45-1.24,2.16-1.83.95-.79,2.15-1.78,3.66-2.92.96-.73,1.76-1.29,3.32-2.38,1.79-1.25,2.88-2.02,4.15-2.85,1.69-1.12,3.36-2.11,6.64-4.04,3.31-1.96,4.64-2.7,4.93-2.97,1.05-.35,1.99-.65,2.78-.9,11.69-3.61,17-3.34,19.67-3.04.53.06.96.12,1.21.16.82.37,2.01.94,3.39,1.73,3.13,1.79,3.89,2.79,5.18,2.54,1.44-.29,2.7-1.98,2.54-3.28-.07-.57-.79-1.33-2.22-2.85-.84-.89-1.24-1.23-1.69-2.01-.1-.17-.49-.86-.76-1.91-.54-2.08.15-2.69-.4-4.58-.31-1.07-.8-1.8-1-2.08-.86-1.19-1.91-1.82-2.53-2.12-.21-.29-.49-.71-.77-1.24-.28-.53-.48-1.04-.78-1.99-.45-1.42-.68-2.13-.85-3.15-.22-1.29-.23-2.3-.23-2.91,0-1.58.18-2.84.31-3.57.02-.13.54-2.9,1.86-5.43,2.61-5.02,7.66-7.79,8.78-8.38-2.22.45-5.27,1.4-8.33,3.53-.71.49-1.71,1.19-2.73,2.12-1.55,1.4-3.17,3.34-4.01,5.96-.29.9-.4,1.65-.61,3.16-.49,3.39-.46,6.22-.35,8.13,0,.66,0,1.32-.01,1.97,0,1.61-.01,3.23-.02,4.83.08.49.18.89.25,1.17.13.47.2.63.28,1.02,0,0,.1.51.11,1.07.02,1.51-3.34,3.52-3.35,3.52-3.01,1.8-4.86,2.34-9.2,4.52-.59.29-1.18.59-1.77.89-2.88,1.45-5.7,2.87-7.56,3.81-1.11.41-2.39.93-3.53,1.47-2.16,1.01-4.25,2.05-6.26,3.1-1.5.78-2.95,1.57-4.35,2.35-3.87,2.16-7.33,4.3-10.27,6.21-1.87,1.22-3.53,2.34-4.95,3.33-1.64,1.14-2.95,2.1-3.89,2.8-.9.67-1.46,1.1-1.63,1.23-.46.34-1.51,1.12-2.82,2.09-2.84,2.12-6.91,5.19-8.92,6.75-1.91,1.48-4.95,3.25-6.84,4.3-.85.47-1.47.8-1.65.9-.04.02-.07.04-.11.05l-1.83.66-13.01,4.67s-.05.02-.08.02l-14.86,3.86s-.08.02-.1.03c-2.37.75-4.02,1.32-5.19,1.76-.99.49-1.22,1.55-.88,2.02.29.41,1.11.55,1.87.13.35-.29.69-.6,1.09-.93.58-.47,1.44-1.08,2.64-1.65Z"/>
  </g>
</svg>